<svg xmlns="http://www.w3.org/2000/svg" viewBox="0 0 65.05 128"><defs><style>.cls-1{fill:#4d4d4d;}</style></defs><title>Facebook</title><g id="Layer_2" data-name="Layer 2"><g id="Layer_1-2" data-name="Layer 1"><g id="Facebook"><path class="cls-1" d="M35.78,0H63.34c0,.13,0,.26,0,.39V22.85c0,.17,0,.33,0,.56h-.81c-4.8,0-9.61,0-14.42,0a5.57,5.57,0,0,0-5.64,3.82,12.56,12.56,0,0,0-.54,1.81,23.71,23.71,0,0,0-.28,5.52c.07,3.46,0,6.92,0,10.38v.75H65.05c0,.21-.07.36-.11.5-1.8,6-3.61,11.93-5.39,17.91-.15.49-.44.49-.82.49H41.66V128H14.76c0-.19,0-.39,0-.58L15,65.25c0-.21,0-.42,0-.71H0V45.7H15v-.82c0-7.47,0-14.93.09-22.4a36.77,36.77,0,0,1,.31-4.81,19.11,19.11,0,0,1,4.5-10.25A21.82,21.82,0,0,1,32,.66C33.25.38,34.53.22,35.78,0Z"/></g></g></g></svg>