<svg xmlns="http://www.w3.org/2000/svg" viewBox="0 0 113.13 131"><defs><style>.cls-1{fill:#4d4d4d;}</style></defs><title>Mail</title><g id="Layer_2" data-name="Layer 2"><g id="Layer_1-2" data-name="Layer 1"><path class="cls-1" d="M93.92,131H66.17V108.66H93.92ZM79.18,29.16H68.3v-7l18.15-7.14V0L63,7.14v22h-6.4C67.86,34,76.32,46.08,76.32,59.47V98.52h35.17A1.6,1.6,0,0,0,113.13,97V61.6C113.13,43.69,97.93,29.16,79.18,29.16ZM65.64,60c0-16.45-13.86-30.88-29.65-30.88H34C15.2,29.16,0,43.69,0,61.6V97a1.6,1.6,0,0,0,1.63,1.57h64Z"/></g></g></svg>