<svg xmlns="http://www.w3.org/2000/svg" viewBox="0 0 128 103.56"><defs><style>.cls-1{fill:#4d4d4d;}</style></defs><title>Phone</title><g id="Layer_2"><g id="Layer_1-2"><path id="Phone" class="cls-1" d="M126.21,46.12c-2.79,10.08-12.29,6.36-15.07,5-.44-.21-.89-.42-1.33-.61-2.46-1-17.48-5.06-13.65-24.17,3.14-15.7-67.46-15.7-64.32,0,3.83,19.11-11.19,23.14-13.65,24.17-.44.19-.89.4-1.33.61-2.78,1.35-12.28,5.07-15.07-5C-1.48,34.27-8,.05,63.92,0h.16C136,.05,129.48,34.27,126.21,46.12ZM112.58,87.46v13.05a2.83,2.83,0,0,1-2.52,3H18.5a2.83,2.83,0,0,1-2.52-3V87.46c0-9.7,6.52-17.56,14.56-17.56H35c1.2-8.18,1.72-16.35,1.72-16.35h0c.19-16.26,12.44-29.39,27.54-29.39S91.63,37.29,91.82,53.55h0s.52,8.17,1.72,16.35H98C106.06,69.9,112.58,77.76,112.58,87.46Zm-36.19-40A12.11,12.11,0,1,0,64.28,59.55,12.09,12.09,0,0,0,76.39,47.46Z"/></g></g></svg>