<?xml version="1.0" encoding="UTF-8" standalone="no"?><!DOCTYPE svg PUBLIC "-//W3C//DTD SVG 1.1//EN" "http://www.w3.org/Graphics/SVG/1.1/DTD/svg11.dtd"><svg width="100%" height="100%" viewBox="0 0 503 503" version="1.1" xmlns="http://www.w3.org/2000/svg" xmlns:xlink="http://www.w3.org/1999/xlink" xml:space="preserve" xmlns:serif="http://www.serif.com/" style="fill-rule:evenodd;clip-rule:evenodd;stroke-linejoin:round;stroke-miterlimit:2;"><g><circle cx="251.247" cy="248.622" r="101.249" style="fill:#ebebeb;"/><rect x="231.372" y="0" width="39.749" height="110.999" style="fill:#ebebeb;"/><rect x="231.372" y="391.495" width="39.749" height="110.999" style="fill:#ebebeb;"/><path d="M442.959,87.642l-28.107,-28.107l-78.488,78.488l28.107,28.107l78.488,-78.488Z" style="fill:#ebebeb;"/><path d="M166.13,364.471l-28.107,-28.107l-78.488,78.488l28.107,28.107l78.488,-78.488Z" style="fill:#ebebeb;"/><path d="M414.852,442.959l28.107,-28.107l-78.488,-78.488l-28.107,28.107l78.488,78.488Z" style="fill:#ebebeb;"/><path d="M138.023,166.13l28.107,-28.107l-78.488,-78.488l-28.107,28.107l78.488,78.488Z" style="fill:#ebebeb;"/><path d="M502.494,271.122l0,-39.75l-110.999,0l0,39.75l110.999,0Z" style="fill:#ebebeb;"/><path d="M110.999,271.122l0,-39.75l-110.999,0l0,39.75l110.999,0Z" style="fill:#ebebeb;"/></g></svg>